<?xml version="1.0" encoding="UTF-8" standalone="no"?>
<svg width="900" height="600" xmlns="http://www.w3.org/2000/svg">
  <!-- Background -->
  <rect width="900" height="600" fill="#f8f9fa" rx="10" ry="10"/>
  <text x="450" y="30" font-family="Arial" font-size="24" text-anchor="middle" font-weight="bold">Data Alignment and Feature Engineering Process</text>
  
  <!-- Input Data Sources -->
  <rect x="50" y="80" width="200" height="80" fill="#e3f2fd" stroke="#1565c0" stroke-width="2" rx="5" ry="5"/>
  <text x="150" y="110" font-family="Arial" font-size="16" text-anchor="middle">OpenMeteo Forecast</text>
  <text x="150" y="130" font-family="Arial" font-size="12" text-anchor="middle">Hourly Resolution</text>
  <text x="150" y="150" font-family="Arial" font-size="12" text-anchor="middle">Global Coverage</text>
  
  <rect x="650" y="80" width="200" height="80" fill="#e3f2fd" stroke="#1565c0" stroke-width="2" rx="5" ry="5"/>
  <text x="750" y="110" font-family="Arial" font-size="16" text-anchor="middle">ISD Observations</text>
  <text x="750" y="130" font-family="Arial" font-size="12" text-anchor="middle">Station-based</text>
  <text x="750" y="150" font-family="Arial" font-size="12" text-anchor="middle">Variable Frequency</text>
  
  <!-- Temporal Alignment -->
  <rect x="50" y="200" width="200" height="80" fill="#e8f5e9" stroke="#2e7d32" stroke-width="2" rx="5" ry="5"/>
  <text x="150" y="230" font-family="Arial" font-size="16" text-anchor="middle">Temporal Resampling</text>
  <text x="150" y="250" font-family="Arial" font-size="12" text-anchor="middle">Daily Aggregation</text>
  <text x="150" y="270" font-family="Arial" font-size="12" text-anchor="middle">Min/Max/Mean Values</text>
  
  <rect x="650" y="200" width="200" height="80" fill="#e8f5e9" stroke="#2e7d32" stroke-width="2" rx="5" ry="5"/>
  <text x="750" y="230" font-family="Arial" font-size="16" text-anchor="middle">Temporal Resampling</text>
  <text x="750" y="250" font-family="Arial" font-size="12" text-anchor="middle">Daily Aggregation</text>
  <text x="750" y="270" font-family="Arial" font-size="12" text-anchor="middle">Quality Control</text>
  
  <!-- Spatial Matching -->
  <rect x="350" y="200" width="200" height="80" fill="#fff3e0" stroke="#e65100" stroke-width="2" rx="5" ry="5"/>
  <text x="450" y="230" font-family="Arial" font-size="16" text-anchor="middle">Spatial Matching</text>
  <text x="450" y="250" font-family="Arial" font-size="12" text-anchor="middle">Nearest Station Matching</text>
  <text x="450" y="270" font-family="Arial" font-size="12" text-anchor="middle">Distance-weighted Interpolation</text>
  
  <!-- Feature Engineering -->
  <rect x="200" y="320" width="500" height="120" fill="#f3e5f5" stroke="#7b1fa2" stroke-width="2" rx="5" ry="5"/>
  <text x="450" y="340" font-family="Arial" font-size="18" text-anchor="middle" font-weight="bold">Feature Engineering</text>
  
  <!-- Feature Engineering Components -->
  <rect x="220" y="360" width="140" height="60" fill="#f8bbd0" stroke="#c2185b" stroke-width="1" rx="5" ry="5"/>
  <text x="290" y="380" font-family="Arial" font-size="14" text-anchor="middle">Derived Features</text>
  <text x="290" y="400" font-family="Arial" font-size="12" text-anchor="middle">- Temperature Gradients</text>
  <text x="290" y="415" font-family="Arial" font-size="12" text-anchor="middle">- Diurnal Range</text>
  
  <rect x="380" y="360" width="140" height="60" fill="#f8bbd0" stroke="#c2185b" stroke-width="1" rx="5" ry="5"/>
  <text x="450" y="380" font-family="Arial" font-size="14" text-anchor="middle">Bias Calculation</text>
  <text x="450" y="400" font-family="Arial" font-size="12" text-anchor="middle">- Temp_obs - Temp_forecast</text>
  <text x="450" y="415" font-family="Arial" font-size="12" text-anchor="middle">- Error Statistics</text>
  
  <rect x="540" y="360" width="140" height="60" fill="#f8bbd0" stroke="#c2185b" stroke-width="1" rx="5" ry="5"/>
  <text x="610" y="380" font-family="Arial" font-size="14" text-anchor="middle">Quality Control</text>
  <text x="610" y="400" font-family="Arial" font-size="12" text-anchor="middle">- Outlier Detection</text>
  <text x="610" y="415" font-family="Arial" font-size="12" text-anchor="middle">- Physical Constraints</text>
  
  <!-- Data Splitting -->
  <rect x="200" y="480" width="500" height="80" fill="#e8eaf6" stroke="#3f51b5" stroke-width="2" rx="5" ry="5"/>
  <text x="450" y="510" font-family="Arial" font-size="16" text-anchor="middle">Data Splitting and Normalization</text>
  <text x="450" y="530" font-family="Arial" font-size="12" text-anchor="middle">Train (70%) / Validation (15%) / Test (15%) with Temporal Separation</text>
  <text x="450" y="550" font-family="Arial" font-size="12" text-anchor="middle">Z-score Normalization with Parameters Saved for Inference</text>
  
  <!-- Arrows -->
  <!-- OpenMeteo to Temporal Resampling -->
  <line x1="150" y1="160" x2="150" y2="200" stroke="#666" stroke-width="2" marker-end="url(#arrowhead)"/>
  
  <!-- ISD to Temporal Resampling -->
  <line x1="750" y1="160" x2="750" y2="200" stroke="#666" stroke-width="2" marker-end="url(#arrowhead)"/>
  
  <!-- Temporal Resampling to Spatial Matching -->
  <line x1="250" y1="240" x2="350" y2="240" stroke="#666" stroke-width="2" marker-end="url(#arrowhead)"/>
  <line x1="650" y1="240" x2="550" y2="240" stroke="#666" stroke-width="2" marker-end="url(#arrowhead)"/>
  
  <!-- Spatial Matching to Feature Engineering -->
  <line x1="450" y1="280" x2="450" y2="320" stroke="#666" stroke-width="2" marker-end="url(#arrowhead)"/>
  
  <!-- Feature Engineering to Data Splitting -->
  <line x1="450" y1="440" x2="450" y2="480" stroke="#666" stroke-width="2" marker-end="url(#arrowhead)"/>
  
  <!-- Arrow marker definition -->
  <defs>
    <marker id="arrowhead" markerWidth="10" markerHeight="7" refX="9" refY="3.5" orient="auto">
      <polygon points="0 0, 10 3.5, 0 7" fill="#666"/>
    </marker>
  </defs>
  
  <!-- Feature Details -->
  <rect x="50" y="480" width="120" height="100" fill="none" stroke="#666" stroke-width="1" rx="5" ry="5"/>
  <text x="110" y="495" font-family="Arial" font-size="12" text-anchor="middle" font-weight="bold">Forecast Features</text>
  <text x="110" y="515" font-family="Arial" font-size="10" text-anchor="middle">- Temperature</text>
  <text x="110" y="530" font-family="Arial" font-size="10" text-anchor="middle">- Humidity</text>
  <text x="110" y="545" font-family="Arial" font-size="10" text-anchor="middle">- Wind Speed/Direction</text>
  <text x="110" y="560" font-family="Arial" font-size="10" text-anchor="middle">- Cloud Cover</text>
  <text x="110" y="575" font-family="Arial" font-size="10" text-anchor="middle">- Pressure</text>
  
  <rect x="730" y="480" width="120" height="100" fill="none" stroke="#666" stroke-width="1" rx="5" ry="5"/>
  <text x="790" y="495" font-family="Arial" font-size="12" text-anchor="middle" font-weight="bold">Observation Features</text>
  <text x="790" y="515" font-family="Arial" font-size="10" text-anchor="middle">- Temperature</text>
  <text x="790" y="530" font-family="Arial" font-size="10" text-anchor="middle">- Dew Point</text>
  <text x="790" y="545" font-family="Arial" font-size="10" text-anchor="middle">- Wind Speed/Direction</text>
  <text x="790" y="560" font-family="Arial" font-size="10" text-anchor="middle">- Precipitation</text>
  <text x="790" y="575" font-family="Arial" font-size="10" text-anchor="middle">- Pressure</text>
</svg>
