<?xml version="1.0" encoding="UTF-8" standalone="no"?>
<svg width="900" height="600" xmlns="http://www.w3.org/2000/svg">
  <!-- Background -->
  <rect width="900" height="600" fill="#f8f9fa" rx="10" ry="10"/>
  <text x="450" y="30" font-family="Arial" font-size="24" text-anchor="middle" font-weight="bold">Hybrid Deep Learning Model Architecture</text>
  
  <!-- Input Data -->
  <rect x="50" y="80" width="800" height="60" fill="#e3f2fd" stroke="#1565c0" stroke-width="2" rx="5" ry="5"/>
  <text x="450" y="115" font-family="Arial" font-size="16" text-anchor="middle">Input Weather Data (Forecast Variables + Observation Variables)</text>
  <text x="450" y="135" font-family="Arial" font-size="12" text-anchor="middle">Temperature, Humidity, Wind Speed, Wind Direction, Cloud Cover, Pressure, etc.</text>
  
  <!-- Normalization Layer -->
  <rect x="50" y="160" width="800" height="40" fill="#e8f5e9" stroke="#2e7d32" stroke-width="2" rx="5" ry="5"/>
  <text x="450" y="185" font-family="Arial" font-size="16" text-anchor="middle">Normalization Layer (Z-Score Normalization)</text>
  
  <!-- LSTM Module -->
  <rect x="50" y="220" width="350" height="180" fill="#fff3e0" stroke="#e65100" stroke-width="2" rx="5" ry="5"/>
  <text x="225" y="240" font-family="Arial" font-size="18" text-anchor="middle" font-weight="bold">LSTM Module</text>
  
  <!-- LSTM Components -->
  <rect x="70" y="260" width="310" height="40" fill="#fff8e1" stroke="#ffa000" stroke-width="1" rx="5" ry="5"/>
  <text x="225" y="285" font-family="Arial" font-size="14" text-anchor="middle">Bidirectional LSTM Layer 1</text>
  
  <rect x="70" y="310" width="310" height="40" fill="#fff8e1" stroke="#ffa000" stroke-width="1" rx="5" ry="5"/>
  <text x="225" y="335" font-family="Arial" font-size="14" text-anchor="middle">Bidirectional LSTM Layer 2</text>
  
  <rect x="70" y="360" width="310" height="30" fill="#fff8e1" stroke="#ffa000" stroke-width="1" rx="5" ry="5"/>
  <text x="225" y="380" font-family="Arial" font-size="14" text-anchor="middle">Dropout (0.2)</text>
  
  <!-- GNN Module -->
  <rect x="500" y="220" width="350" height="180" fill="#e1f5fe" stroke="#0277bd" stroke-width="2" rx="5" ry="5"/>
  <text x="675" y="240" font-family="Arial" font-size="18" text-anchor="middle" font-weight="bold">Graph Neural Network Module</text>
  
  <!-- GNN Components -->
  <rect x="520" y="260" width="310" height="40" fill="#e1f5fe" stroke="#0288d1" stroke-width="1" rx="5" ry="5"/>
  <text x="675" y="285" font-family="Arial" font-size="14" text-anchor="middle">Graph Construction Layer</text>
  
  <rect x="520" y="310" width="310" height="40" fill="#e1f5fe" stroke="#0288d1" stroke-width="1" rx="5" ry="5"/>
  <text x="675" y="335" font-family="Arial" font-size="14" text-anchor="middle">Graph Attention Convolution</text>
  
  <rect x="520" y="360" width="310" height="30" fill="#e1f5fe" stroke="#0288d1" stroke-width="1" rx="5" ry="5"/>
  <text x="675" y="380" font-family="Arial" font-size="14" text-anchor="middle">Dropout (0.2)</text>
  
  <!-- Feature Concatenation -->
  <rect x="250" y="420" width="400" height="40" fill="#f3e5f5" stroke="#7b1fa2" stroke-width="2" rx="5" ry="5"/>
  <text x="450" y="445" font-family="Arial" font-size="16" text-anchor="middle">Feature Concatenation [LSTM Features || GNN Features]</text>
  
  <!-- Attention Module -->
  <rect x="250" y="480" width="400" height="60" fill="#f3e5f5" stroke="#7b1fa2" stroke-width="2" rx="5" ry="5"/>
  <text x="450" y="505" font-family="Arial" font-size="16" text-anchor="middle">Multi-Head Self-Attention</text>
  <text x="450" y="525" font-family="Arial" font-size="14" text-anchor="middle">(8 Attention Heads)</text>
  
  <!-- Output Layers -->
  <rect x="350" y="560" width="200" height="30" fill="#ffebee" stroke="#c62828" stroke-width="2" rx="5" ry="5"/>
  <text x="450" y="580" font-family="Arial" font-size="16" text-anchor="middle">Linear Output Layer</text>
  
  <!-- Arrows -->
  <!-- Input to Normalization -->
  <line x1="450" y1="140" x2="450" y2="160" stroke="#666" stroke-width="2" marker-end="url(#arrowhead)"/>
  
  <!-- Normalization to LSTM and GNN -->
  <line x1="450" y1="200" x2="225" y2="220" stroke="#666" stroke-width="2" marker-end="url(#arrowhead)"/>
  <line x1="450" y1="200" x2="675" y2="220" stroke="#666" stroke-width="2" marker-end="url(#arrowhead)"/>
  
  <!-- LSTM to Feature Concatenation -->
  <line x1="225" y1="400" x2="350" y2="420" stroke="#666" stroke-width="2" marker-end="url(#arrowhead)"/>
  
  <!-- GNN to Feature Concatenation -->
  <line x1="675" y1="400" x2="550" y2="420" stroke="#666" stroke-width="2" marker-end="url(#arrowhead)"/>
  
  <!-- Feature Concatenation to Attention -->
  <line x1="450" y1="460" x2="450" y2="480" stroke="#666" stroke-width="2" marker-end="url(#arrowhead)"/>
  
  <!-- Attention to Output -->
  <line x1="450" y1="540" x2="450" y2="560" stroke="#666" stroke-width="2" marker-end="url(#arrowhead)"/>
  
  <!-- Arrow marker definition -->
  <defs>
    <marker id="arrowhead" markerWidth="10" markerHeight="7" refX="9" refY="3.5" orient="auto">
      <polygon points="0 0, 10 3.5, 0 7" fill="#666"/>
    </marker>
  </defs>
  
  <!-- Mathematical Formulations -->
  <text x="80" y="410" font-family="Arial" font-size="10" fill="#666">h_t, c_t = LSTM(x_t, h_{t-1}, c_{t-1})</text>
  <text x="520" y="410" font-family="Arial" font-size="10" fill="#666">h_i' = σ(∑_{j∈N_i} α_ij W h_j)</text>
  <text x="280" y="470" font-family="Arial" font-size="10" fill="#666">H_combined = [H^LSTM; H^GNN]</text>
  <text x="280" y="550" font-family="Arial" font-size="10" fill="#666">Attention(Q,K,V) = softmax(QK^T/√d_k)V</text>
  
  <!-- Legend -->
  <rect x="50" y="560" width="15" height="15" fill="#fff3e0" stroke="#e65100" stroke-width="2"/>
  <text x="75" y="572" font-family="Arial" font-size="12">Temporal Processing</text>
  
  <rect x="200" y="560" width="15" height="15" fill="#e1f5fe" stroke="#0277bd" stroke-width="2"/>
  <text x="225" y="572" font-family="Arial" font-size="12">Spatial Processing</text>
  
  <rect x="600" y="560" width="15" height="15" fill="#f3e5f5" stroke="#7b1fa2" stroke-width="2"/>
  <text x="625" y="572" font-family="Arial" font-size="12">Feature Fusion</text>
  
  <rect x="750" y="560" width="15" height="15" fill="#ffebee" stroke="#c62828" stroke-width="2"/>
  <text x="775" y="572" font-family="Arial" font-size="12">Output</text>
</svg>
