<?xml version="1.0" encoding="UTF-8" standalone="no"?>
<svg width="900" height="600" xmlns="http://www.w3.org/2000/svg">
  <!-- Background -->
  <rect width="900" height="600" fill="#f8f9fa" rx="10" ry="10"/>
  <text x="450" y="30" font-family="Arial" font-size="24" text-anchor="middle" font-weight="bold">Hybrid Deep Learning Model Architecture</text>
  
  <!-- Input Data -->
  <rect x="50" y="50" width="800" height="60" fill="#e3f2fd" stroke="#1565c0" stroke-width="2" rx="5" ry="5"/>
  <text x="450" y="75" font-family="Arial" font-size="16" text-anchor="middle">Input Weather Data</text>
  <text x="450" y="95" font-family="Arial" font-size="12" text-anchor="middle">Temperature, Humidity, Wind Speed, Wind Direction, Cloud Cover, Pressure</text>
  
  <!-- Normalization Layer -->
  <rect x="50" y="120" width="800" height="40" fill="#e8f5e9" stroke="#2e7d32" stroke-width="2" rx="5" ry="5"/>
  <text x="450" y="145" font-family="Arial" font-size="16" text-anchor="middle">Normalization Layer (Z-Score)</text>
  
  <!-- LSTM Module -->
  <rect x="50" y="170" width="350" height="140" fill="#fff3e0" stroke="#e65100" stroke-width="2" rx="5" ry="5"/>
  <text x="225" y="190" font-family="Arial" font-size="18" text-anchor="middle" font-weight="bold">LSTM Module</text>
  <rect x="70" y="210" width="310" height="30" fill="#fff8e1" stroke="#ffa000" stroke-width="1" rx="5" ry="5"/>
  <text x="225" y="230" font-family="Arial" font-size="14" text-anchor="middle">Bidirectional LSTM Layer 1</text>
  <rect x="70" y="245" width="310" height="30" fill="#fff8e1" stroke="#ffa000" stroke-width="1" rx="5" ry="5"/>
  <text x="225" y="265" font-family="Arial" font-size="14" text-anchor="middle">Bidirectional LSTM Layer 2</text>
  <rect x="70" y="280" width="310" height="20" fill="#fff8e1" stroke="#ffa000" stroke-width="1" rx="5" ry="5"/>
  <text x="225" y="295" font-family="Arial" font-size="14" text-anchor="middle">Dropout (0.2)</text>
  
  <!-- GNN Module -->
  <rect x="500" y="170" width="350" height="140" fill="#e1f5fe" stroke="#0277bd" stroke-width="2" rx="5" ry="5"/>
  <text x="675" y="190" font-family="Arial" font-size="18" text-anchor="middle" font-weight="bold">Graph Neural Network Module</text>
  <rect x="520" y="210" width="310" height="30" fill="#e1f5fe" stroke="#0288d1" stroke-width="1" rx="5" ry="5"/>
  <text x="675" y="230" font-family="Arial" font-size="14" text-anchor="middle">Graph Construction Layer</text>
  <rect x="520" y="245" width="310" height="30" fill="#e1f5fe" stroke="#0288d1" stroke-width="1" rx="5" ry="5"/>
  <text x="675" y="265" font-family="Arial" font-size="14" text-anchor="middle">Graph Attention Convolution</text>
  <rect x="520" y="280" width="310" height="20" fill="#e1f5fe" stroke="#0288d1" stroke-width="1" rx="5" ry="5"/>
  <text x="675" y="295" font-family="Arial" font-size="14" text-anchor="middle">Dropout (0.2)</text>
  
  <!-- Feature Concatenation -->
  <rect x="250" y="320" width="400" height="40" fill="#f3e5f5" stroke="#7b1fa2" stroke-width="2" rx="5" ry="5"/>
  <text x="450" y="345" font-family="Arial" font-size="16" text-anchor="middle">Feature Concatenation [LSTM + GNN]</text>
  
  <!-- Attention Module -->
  <rect x="250" y="370" width="400" height="60" fill="#f3e5f5" stroke="#7b1fa2" stroke-width="2" rx="5" ry="5"/>
  <text x="450" y="395" font-family="Arial" font-size="16" text-anchor="middle">Multi-Head Self-Attention</text>
  <text x="450" y="415" font-family="Arial" font-size="14" text-anchor="middle">(8 Heads)</text>
  
  <!-- Output Layers -->
  <rect x="350" y="440" width="200" height="30" fill="#ffebee" stroke="#c62828" stroke-width="2" rx="5" ry="5"/>
  <text x="450" y="460" font-family="Arial" font-size="16" text-anchor="middle">Linear Output Layer</text>
  
  <!-- Legend -->
  <rect x="50" y="500" width="15" height="15" fill="#fff3e0" stroke="#e65100" stroke-width="2"/>
  <text x="75" y="512" font-family="Arial" font-size="12">Temporal Processing</text>
  <rect x="200" y="500" width="15" height="15" fill="#e1f5fe" stroke="#0277bd" stroke-width="2"/>
  <text x="225" y="512" font-family="Arial" font-size="12">Spatial Processing</text>
  <rect x="600" y="500" width="15" height="15" fill="#f3e5f5" stroke="#7b1fa2" stroke-width="2"/>
  <text x="625" y="512" font-family="Arial" font-size="12">Feature Fusion</text>
  <rect x="750" y="500" width="15" height="15" fill="#ffebee" stroke="#c62828" stroke-width="2"/>
  <text x="775" y="512" font-family="Arial" font-size="12">Output</text>
</svg>